<svg width="30" height="32" viewBox="0 0 30 32" fill="none" xmlns="http://www.w3.org/2000/svg">
<path d="M8.74756 0C3.92381 0 0 4.13415 0 9.2131V22.371C0 27.4486 3.92744 31.5789 8.75244 31.5789H21.2524C26.0762 31.5789 30 27.4448 30 22.3659V9.20796C30 4.13032 26.0726 0 21.2476 0H8.74756ZM23.75 5.26316C24.44 5.26316 25 5.85263 25 6.57895C25 7.30526 24.44 7.89474 23.75 7.89474C23.06 7.89474 22.5 7.30526 22.5 6.57895C22.5 5.85263 23.06 5.26316 23.75 5.26316ZM15 7.89474C19.1362 7.89474 22.5 11.4355 22.5 15.7895C22.5 20.1434 19.1362 23.6842 15 23.6842C10.8638 23.6842 7.5 20.1434 7.5 15.7895C7.5 11.4355 10.8638 7.89474 15 7.89474ZM15 10.5263C13.6739 10.5263 12.4021 11.0808 11.4645 12.0679C10.5268 13.0549 10 14.3936 10 15.7895C10 17.1854 10.5268 18.5241 11.4645 19.5111C12.4021 20.4981 13.6739 21.0526 15 21.0526C16.3261 21.0526 17.5979 20.4981 18.5355 19.5111C19.4732 18.5241 20 17.1854 20 15.7895C20 14.3936 19.4732 13.0549 18.5355 12.0679C17.5979 11.0808 16.3261 10.5263 15 10.5263Z" fill="#191919"/>
</svg>
