<svg width="30" height="29" viewBox="0 0 30 29" fill="none" xmlns="http://www.w3.org/2000/svg">
<path d="M27.2727 0H2.72727C1.22045 0 0 1.17763 0 2.63158V26.3158C0 27.7697 1.22045 28.9474 2.72727 28.9474H27.2727C28.7795 28.9474 30 27.7697 30 26.3158V2.63158C30 1.17763 28.7795 0 27.2727 0ZM9.48273 23.6842H5.46V11.1947H9.48273V23.6842ZM7.43046 9.40921C6.13364 9.40921 5.085 8.39474 5.085 7.14605C5.085 5.89737 6.135 4.88421 7.43046 4.88421C8.72318 4.88421 9.77455 5.89868 9.77455 7.14605C9.77455 8.39474 8.72318 9.40921 7.43046 9.40921ZM24.5509 23.6842H20.5309V17.6105C20.5309 16.1618 20.5036 14.2987 18.4405 14.2987C16.3473 14.2987 16.0255 15.8763 16.0255 17.5053V23.6842H12.0055V11.1947H15.8645V12.9013H15.9191C16.4564 11.9197 17.7682 10.8842 19.725 10.8842C23.7982 10.8842 24.5509 13.4711 24.5509 16.8342V23.6842Z" fill="#191919"/>
</svg>
