<svg width="30" height="25" viewBox="0 0 30 25" fill="none" xmlns="http://www.w3.org/2000/svg">
<path d="M30 2.88566C28.8958 3.37602 27.7097 3.70601 26.4648 3.85485C27.7362 3.09334 28.7112 1.88762 29.1704 0.449983C27.982 1.15496 26.6644 1.66724 25.2613 1.94416C24.1387 0.747664 22.5395 0 20.7696 0C17.3705 0 14.6152 2.75643 14.6152 6.15438C14.6152 6.63667 14.6706 7.10742 14.7744 7.55625C9.65963 7.3001 5.12519 4.84943 2.08838 1.12496C1.55994 2.03415 1.25649 3.09104 1.25649 4.22061C1.25649 6.35514 2.34222 8.2393 3.99331 9.34233C2.98489 9.31003 2.03531 9.03311 1.20572 8.57275C1.20572 8.59929 1.20572 8.62351 1.20572 8.65005C1.20572 11.6326 3.32641 14.1202 6.14284 14.6844C5.62709 14.8252 5.0825 14.9002 4.5206 14.9002C4.12484 14.9002 3.73832 14.861 3.36333 14.7906C4.14676 17.2355 6.41975 19.0158 9.11273 19.0654C7.00704 20.7165 4.35329 21.7007 1.46879 21.7007C0.972655 21.7007 0.482289 21.6719 0 21.6142C2.72413 23.3599 5.95823 24.3787 9.43464 24.3787C20.7557 24.3787 26.9447 15.0006 26.9447 6.86743C26.9447 6.6009 26.939 6.33553 26.9274 6.07131C28.1308 5.20249 29.175 4.11907 30 2.88566Z" fill="#191919"/>
</svg>
